<svg width="112" height="71" viewBox="0 0 112 71" fill="none" xmlns="http://www.w3.org/2000/svg">
<path d="M8.13636 53V35.5455H18.9602V37.8125H10.7699V43.1307H18.1847V45.3892H10.7699V53H8.13636ZM37.3608 44.2727C37.3608 46.1364 37.0199 47.7386 36.3381 49.0795C35.6563 50.4148 34.7216 51.4432 33.5341 52.1648C32.3523 52.8807 31.0085 53.2386 29.5028 53.2386C27.9915 53.2386 26.642 52.8807 25.4545 52.1648C24.2727 51.4432 23.3409 50.4119 22.6591 49.071C21.9773 47.7301 21.6364 46.1307 21.6364 44.2727C21.6364 42.4091 21.9773 40.8097 22.6591 39.4744C23.3409 38.1335 24.2727 37.1051 25.4545 36.3892C26.642 35.6676 27.9915 35.3068 29.5028 35.3068C31.0085 35.3068 32.3523 35.6676 33.5341 36.3892C34.7216 37.1051 35.6563 38.1335 36.3381 39.4744C37.0199 40.8097 37.3608 42.4091 37.3608 44.2727ZM34.7528 44.2727C34.7528 42.8523 34.5227 41.6562 34.0625 40.6847C33.608 39.7074 32.983 38.9688 32.1875 38.4688C31.3977 37.9631 30.5028 37.7102 29.5028 37.7102C28.4972 37.7102 27.5994 37.9631 26.8097 38.4688C26.0199 38.9688 25.3949 39.7074 24.9347 40.6847C24.4801 41.6562 24.2528 42.8523 24.2528 44.2727C24.2528 45.6932 24.4801 46.892 24.9347 47.8693C25.3949 48.8409 26.0199 49.5795 26.8097 50.0852C27.5994 50.5852 28.4972 50.8352 29.5028 50.8352C30.5028 50.8352 31.3977 50.5852 32.1875 50.0852C32.983 49.5795 33.608 48.8409 34.0625 47.8693C34.5227 46.892 34.7528 45.6932 34.7528 44.2727ZM40.6442 53V35.5455H43.2777V50.733H51.1868V53H40.6442ZM54.1911 53V35.5455H56.8246V50.733H64.7337V53H54.1911ZM70.3714 35.5455V53H67.7379V35.5455H70.3714ZM74.2067 53V35.5455H85.0305V37.8125H76.8402V43.1307H84.255V45.3892H76.8402V53H74.2067ZM86.9226 35.5455H89.9141L94.4737 43.4801H94.6612L99.2209 35.5455H102.212L95.88 46.1477V53H93.255V46.1477L86.9226 35.5455Z" fill="white"/>
<path d="M1.24547 69V61.7273H5.30442V62.1392H1.68936V65.1541H4.96706V65.5661H1.68936V69H1.24547ZM12.8896 65.3636C12.8896 66.1141 12.7594 66.7699 12.499 67.331C12.2386 67.8897 11.8764 68.3241 11.4124 68.6342C10.9507 68.9444 10.4181 69.0994 9.81436 69.0994C9.2083 69.0994 8.67327 68.9444 8.20925 68.6342C7.7476 68.3217 7.38657 67.8861 7.12615 67.3274C6.86574 66.7663 6.73553 66.1117 6.73553 65.3636C6.73553 64.6132 6.86574 63.9586 7.12615 63.3999C7.38894 62.8411 7.75115 62.4067 8.2128 62.0966C8.67445 61.7841 9.2083 61.6278 9.81436 61.6278C10.4181 61.6278 10.9507 61.7829 11.4124 62.093C11.8764 62.4032 12.2386 62.8388 12.499 63.3999C12.7594 63.9586 12.8896 64.6132 12.8896 65.3636ZM12.4564 65.3636C12.4564 64.6889 12.3428 64.1042 12.1155 63.6094C11.8906 63.1146 11.5793 62.7322 11.1816 62.4624C10.7838 62.1901 10.3281 62.054 9.81436 62.054C9.30063 62.054 8.8449 62.1889 8.44718 62.4588C8.04945 62.7263 7.73695 63.1087 7.50968 63.6058C7.28477 64.1006 7.17232 64.6866 7.17232 65.3636C7.17232 66.0336 7.28359 66.6172 7.50613 67.1143C7.73103 67.6091 8.04235 67.9927 8.44007 68.2649C8.8378 68.5372 9.2959 68.6733 9.81436 68.6733C10.3281 68.6733 10.7838 68.5384 11.1816 68.2685C11.5793 67.9962 11.8906 67.6127 12.1155 67.1179C12.3428 66.6231 12.4564 66.0384 12.4564 65.3636ZM14.6244 69V61.7273H15.0683V68.5881H18.6194V69H14.6244ZM20.2494 69V61.7273H20.6933V68.5881H24.2444V69H20.2494ZM31.376 65.3636C31.376 66.1141 31.2458 66.7699 30.9854 67.331C30.7249 67.8897 30.3627 68.3241 29.8987 68.6342C29.4371 68.9444 28.9044 69.0994 28.3007 69.0994C27.6946 69.0994 27.1596 68.9444 26.6956 68.6342C26.2339 68.3217 25.8729 67.8861 25.6125 67.3274C25.3521 66.7663 25.2219 66.1117 25.2219 65.3636C25.2219 64.6132 25.3521 63.9586 25.6125 63.3999C25.8753 62.8411 26.2375 62.4067 26.6991 62.0966C27.1608 61.7841 27.6946 61.6278 28.3007 61.6278C28.9044 61.6278 29.4371 61.7829 29.8987 62.093C30.3627 62.4032 30.7249 62.8388 30.9854 63.3999C31.2458 63.9586 31.376 64.6132 31.376 65.3636ZM30.9427 65.3636C30.9427 64.6889 30.8291 64.1042 30.6018 63.6094C30.3769 63.1146 30.0656 62.7322 29.6679 62.4624C29.2702 62.1901 28.8144 62.054 28.3007 62.054C27.787 62.054 27.3312 62.1889 26.9335 62.4588C26.5358 62.7263 26.2233 63.1087 25.996 63.6058C25.7711 64.1006 25.6586 64.6866 25.6586 65.3636C25.6586 66.0336 25.7699 66.6172 25.9925 67.1143C26.2174 67.6091 26.5287 67.9927 26.9264 68.2649C27.3241 68.5372 27.7822 68.6733 28.3007 68.6733C28.8144 68.6733 29.2702 68.5384 29.6679 68.2685C30.0656 67.9962 30.3769 67.6127 30.6018 67.1179C30.8291 66.6231 30.9427 66.0384 30.9427 65.3636ZM34.3181 69L32.3188 61.7273H32.7805L34.556 68.3146H34.5986L36.3458 61.7273H36.8856L38.6327 68.3146H38.6753L40.4509 61.7273H40.909L38.9097 69H38.3983L36.6334 62.4553H36.5944L34.8295 69H34.3181ZM47.1084 61.7273H47.634L49.9244 65.2358H49.9742L52.2646 61.7273H52.7902L50.173 65.701V69H49.7256V65.701L47.1084 61.7273ZM59.5986 65.3636C59.5986 66.1141 59.4684 66.7699 59.208 67.331C58.9476 67.8897 58.5854 68.3241 58.1214 68.6342C57.6597 68.9444 57.127 69.0994 56.5233 69.0994C55.9173 69.0994 55.3823 68.9444 54.9182 68.6342C54.4566 68.3217 54.0956 67.8861 53.8351 67.3274C53.5747 66.7663 53.4445 66.1117 53.4445 65.3636C53.4445 64.6132 53.5747 63.9586 53.8351 63.3999C54.0979 62.8411 54.4601 62.4067 54.9218 62.0966C55.3834 61.7841 55.9173 61.6278 56.5233 61.6278C57.127 61.6278 57.6597 61.7829 58.1214 62.093C58.5854 62.4032 58.9476 62.8388 59.208 63.3999C59.4684 63.9586 59.5986 64.6132 59.5986 65.3636ZM59.1654 65.3636C59.1654 64.6889 59.0518 64.1042 58.8245 63.6094C58.5996 63.1146 58.2883 62.7322 57.8905 62.4624C57.4928 62.1901 57.0371 62.054 56.5233 62.054C56.0096 62.054 55.5539 62.1889 55.1562 62.4588C54.7584 62.7263 54.4459 63.1087 54.2187 63.6058C53.9938 64.1006 53.8813 64.6866 53.8813 65.3636C53.8813 66.0336 53.9926 66.6172 54.2151 67.1143C54.44 67.6091 54.7513 67.9927 55.1491 68.2649C55.5468 68.5372 56.0049 68.6733 56.5233 68.6733C57.0371 68.6733 57.4928 68.5384 57.8905 68.2685C58.2883 67.9962 58.5996 67.6127 58.8245 67.1179C59.0518 66.6231 59.1654 66.0384 59.1654 65.3636ZM66.2588 61.7273H66.7027V66.5426C66.7027 67.0374 66.5879 67.4789 66.3582 67.8672C66.1286 68.2531 65.8113 68.5585 65.4065 68.7834C65.0041 69.0059 64.5412 69.1172 64.018 69.1172C63.4972 69.1172 63.0344 69.0059 62.6295 68.7834C62.2247 68.5585 61.9063 68.2519 61.6743 67.8636C61.4446 67.4754 61.331 67.035 61.3334 66.5426V61.7273H61.7773V66.5178C61.7773 66.9368 61.872 67.3097 62.0613 67.6364C62.2531 67.9631 62.5171 68.2211 62.8532 68.4105C63.1894 68.5975 63.5777 68.6911 64.018 68.6911C64.4584 68.6911 64.8466 68.5975 65.1828 68.4105C65.519 68.2211 65.7818 67.9631 65.9711 67.6364C66.1629 67.3097 66.2588 66.9368 66.2588 66.5178V61.7273ZM68.8041 69V61.7273H71.0448C71.5041 61.7273 71.8995 61.8172 72.2309 61.9972C72.5624 62.1771 72.8169 62.4268 72.9944 62.7464C73.172 63.0637 73.2607 63.433 73.2607 63.8544C73.2607 64.2711 73.172 64.638 72.9944 64.9553C72.8169 65.2701 72.5624 65.5163 72.2309 65.6939C71.9018 65.8714 71.5077 65.9602 71.0484 65.9602H69.042V65.5447H71.0377C71.4118 65.5447 71.7314 65.4749 71.9965 65.3352C72.2617 65.1955 72.4653 65.0002 72.6073 64.7493C72.7494 64.496 72.8204 64.1977 72.8204 63.8544C72.8204 63.5088 72.7494 63.2081 72.6073 62.9524C72.4653 62.6944 72.2605 62.4943 71.993 62.3523C71.7278 62.2102 71.4082 62.1392 71.0342 62.1392H69.248V69H68.8041ZM71.7906 65.7045L73.5803 69H73.069L71.2899 65.7045H71.7906ZM80.6595 61.7273H81.1425L83.9443 68.3608H83.9941L86.7959 61.7273H87.2789V69H86.8527V62.782H86.8101L84.1787 69H83.7597L81.1283 62.782H81.0857V69H80.6595V61.7273ZM94.3057 61.7273H94.7496V66.5426C94.7496 67.0374 94.6347 67.4789 94.4051 67.8672C94.1755 68.2531 93.8582 68.5585 93.4534 68.7834C93.0509 69.0059 92.5881 69.1172 92.0649 69.1172C91.5441 69.1172 91.0812 69.0059 90.6764 68.7834C90.2716 68.5585 89.9532 68.2519 89.7211 67.8636C89.4915 67.4754 89.3779 67.035 89.3802 66.5426V61.7273H89.8241V66.5178C89.8241 66.9368 89.9188 67.3097 90.1082 67.6364C90.3 67.9631 90.564 68.2211 90.9001 68.4105C91.2363 68.5975 91.6246 68.6911 92.0649 68.6911C92.5052 68.6911 92.8935 68.5975 93.2297 68.4105C93.5658 68.2211 93.8286 67.9631 94.018 67.6364C94.2098 67.3097 94.3057 66.9368 94.3057 66.5178V61.7273ZM100.771 63.5455C100.734 63.0933 100.549 62.7275 100.217 62.4482C99.8883 62.1688 99.4622 62.0291 98.939 62.0291C98.5863 62.0291 98.2726 62.0942 97.998 62.2244C97.7233 62.3546 97.5079 62.5322 97.3517 62.7571C97.1954 62.982 97.1173 63.2401 97.1173 63.5312C97.1173 63.7183 97.1528 63.8875 97.2238 64.0391C97.2972 64.1882 97.4002 64.322 97.5328 64.4403C97.6653 64.5563 97.8228 64.6581 98.0051 64.7457C98.1874 64.8333 98.3886 64.9103 98.6088 64.9766L99.4042 65.2109C99.6765 65.2938 99.9274 65.3897 100.157 65.4986C100.389 65.6075 100.59 65.7377 100.761 65.8892C100.934 66.0384 101.067 66.2135 101.162 66.4148C101.259 66.616 101.308 66.848 101.308 67.1108C101.308 67.4943 101.208 67.8376 101.009 68.1406C100.813 68.4437 100.532 68.6828 100.168 68.858C99.8055 69.0308 99.3782 69.1172 98.8857 69.1172C98.417 69.1172 98.0086 69.0379 97.6606 68.8793C97.315 68.7206 97.0415 68.5005 96.8403 68.2188C96.6391 67.9347 96.5254 67.608 96.4994 67.2386H96.9539C96.9776 67.5393 97.0735 67.7997 97.2416 68.0199C97.412 68.2377 97.6381 68.4058 97.9198 68.5241C98.2016 68.6425 98.5235 68.7017 98.8857 68.7017C99.2764 68.7017 99.6208 68.6354 99.9191 68.5028C100.217 68.3679 100.451 68.1809 100.619 67.9418C100.787 67.7027 100.871 67.4245 100.871 67.1072C100.871 66.8516 100.81 66.6326 100.69 66.4503C100.569 66.268 100.39 66.1106 100.153 65.978C99.9191 65.8454 99.6279 65.727 99.2799 65.6229L98.4312 65.3672C97.863 65.1944 97.4286 64.9588 97.1279 64.6605C96.8296 64.3622 96.6805 63.9905 96.6805 63.5455C96.6805 63.1714 96.7799 62.84 96.9788 62.5511C97.1776 62.2599 97.4475 62.0315 97.7884 61.8658C98.1317 61.7 98.5188 61.6172 98.9497 61.6172C99.3829 61.6172 99.7652 61.7012 100.097 61.8693C100.428 62.035 100.691 62.2635 100.885 62.5547C101.079 62.8435 101.187 63.1738 101.208 63.5455H100.771ZM103.506 61.7273V69H103.062V61.7273H103.506ZM111.15 64H110.696C110.649 63.7538 110.56 63.5159 110.43 63.2862C110.299 63.0542 110.131 62.8459 109.925 62.6612C109.722 62.4742 109.485 62.3262 109.215 62.2173C108.945 62.1084 108.647 62.054 108.32 62.054C107.842 62.054 107.402 62.1818 106.999 62.4375C106.599 62.6908 106.278 63.0637 106.037 63.5561C105.798 64.0485 105.678 64.651 105.678 65.3636C105.678 66.081 105.798 66.6858 106.037 67.1783C106.278 67.6707 106.599 68.0436 106.999 68.2969C107.402 68.5478 107.842 68.6733 108.32 68.6733C108.647 68.6733 108.945 68.62 109.215 68.5135C109.485 68.4046 109.722 68.2578 109.925 68.0732C110.131 67.8861 110.299 67.6766 110.43 67.4446C110.56 67.2126 110.649 66.9735 110.696 66.7273H111.15C111.098 67.0208 110.998 67.3085 110.849 67.5902C110.702 67.8719 110.508 68.1276 110.266 68.3572C110.027 68.5845 109.744 68.7656 109.418 68.9006C109.093 69.0331 108.727 69.0994 108.32 69.0994C107.714 69.0994 107.18 68.9455 106.719 68.6378C106.257 68.3277 105.895 67.892 105.632 67.331C105.372 66.7699 105.241 66.1141 105.241 65.3636C105.241 64.6132 105.372 63.9574 105.632 63.3963C105.895 62.8352 106.257 62.4008 106.719 62.093C107.18 61.7829 107.714 61.6278 108.32 61.6278C108.727 61.6278 109.093 61.6953 109.418 61.8303C109.744 61.9628 110.027 62.1428 110.266 62.37C110.508 62.5949 110.702 62.8482 110.849 63.13C110.998 63.4117 111.098 63.7017 111.15 64Z" fill="#1ED760"/>
<g clip-path="url(#clip0_23_279)">
<path d="M42.5156 16.7578C42.5156 14.7429 42.7975 12.7221 43.7092 10.8984C44.1529 10.011 44.9337 9.26397 45.3281 8.37891C47.3049 9.49166 49.232 7.34754 51.0117 6.73014C53.6753 5.80616 56.732 6.2393 59.0977 7.73748C60.1978 8.43422 61.379 9.1067 62.6719 8.37891C63.0664 9.26397 63.8472 10.011 64.2908 10.8984C65.2025 12.7221 65.4844 14.7429 65.4844 16.7578H63.1992C62.8307 16.7578 62.4504 16.7142 62.1758 17.0115C61.8722 17.3401 61.9688 17.8697 61.9688 18.2812V21.2695V25.2539C61.9688 25.7245 61.8287 26.4698 62.0609 26.8922C62.3498 27.4177 62.9882 27.3047 63.4922 27.3047C64.7381 27.3047 66.5346 27.6366 67.6524 27.0092C69.67 25.8767 69 22.7456 69 20.8008C69 19.9949 69.1172 19.1047 68.8202 18.3398C68.6598 17.9266 68.3582 17.5359 68.0039 17.2712C67.7823 17.1056 67.3388 16.9843 67.2608 16.696C67.1067 16.1262 67.2773 15.4131 67.2369 14.8242C67.1551 13.629 66.8646 12.4381 66.4759 11.3086C66.1504 10.3627 65.6662 9.4442 65.1133 8.61328C64.8565 8.22738 64.3205 7.75904 64.1855 7.32422C64.1068 7.07074 64.4467 6.84908 64.5862 6.67969C64.861 6.34606 65.0046 5.91785 64.7996 5.50781C64.4148 4.73827 63.3133 4.0441 62.6133 3.57427C60.3958 2.08597 57.6991 1.00459 54.9961 0.938357C51.6426 0.856191 48.4472 1.53396 45.6211 3.41797C44.8495 3.93235 43.6256 4.65768 43.2005 5.50781C42.9955 5.91785 43.139 6.34606 43.4138 6.67969C43.5533 6.84908 43.8933 7.07074 43.8146 7.32422C43.6796 7.75904 43.1435 8.22738 42.8867 8.61328C42.3338 9.4442 41.8497 10.3627 41.5242 11.3086C41.1355 12.4381 40.8449 13.629 40.7631 14.8242C40.7227 15.4131 40.8934 16.1262 40.7392 16.696C40.6612 16.9843 40.2177 17.1056 39.9962 17.2712C39.6419 17.5359 39.3403 17.9266 39.1798 18.3398C38.8828 19.1047 39 19.9949 39 20.8008C39 22.7456 38.33 25.8767 40.3477 27.0092C41.4655 27.6366 43.2619 27.3047 44.5078 27.3047C45.0118 27.3047 45.6502 27.4177 45.9391 26.8922C46.1713 26.4698 46.0313 25.7245 46.0313 25.2539V21.2695V18.2812C46.0313 17.8697 46.1278 17.3401 45.8243 17.0115C45.5497 16.7142 45.1693 16.7578 44.8008 16.7578H42.5156Z" fill="#1ED760" fill-opacity="0.79"/>
<path d="M51.8909 15.0412C50.9817 15.3525 51.3633 17.4598 51.3633 18.2227V26.7774C51.3633 27.6082 51.1358 29.5205 52.5935 29.0213C53.5026 28.71 53.1211 26.6027 53.1211 25.8399V17.2852C53.1211 16.4544 53.3485 14.542 51.8909 15.0412ZM55.4065 15.0412C54.4973 15.3525 54.8789 17.4598 54.8789 18.2227V26.7774C54.8789 27.6082 54.6514 29.5205 56.1091 29.0213C57.0183 28.71 56.6367 26.6027 56.6367 25.8399V17.2852C56.6367 16.4544 56.8642 14.542 55.4065 15.0412Z" fill="#1ED760" fill-opacity="0.79"/>
<path d="M48.3753 18.5568C47.6876 18.7923 47.8477 19.6484 47.8477 20.2149V23.3789C47.8477 23.8728 47.7521 24.4807 47.8723 24.9609C48.001 25.4752 48.6115 25.6654 49.0779 25.5057C49.7657 25.2702 49.6055 24.4141 49.6055 23.8477V20.6836C49.6055 20.1897 49.7011 19.5818 49.581 19.1016C49.4522 18.5873 48.8417 18.3971 48.3753 18.5568ZM58.9222 18.5568C58.2344 18.7923 58.3946 19.6484 58.3946 20.2149V23.3789C58.3946 23.8728 58.299 24.4807 58.4191 24.9609C58.5479 25.4752 59.1584 25.6654 59.6248 25.5057C60.3125 25.2702 60.1524 24.4141 60.1524 23.8477V20.6836C60.1524 20.1897 60.248 19.5818 60.1278 19.1016C59.9991 18.5873 59.3886 18.3971 58.9222 18.5568Z" fill="#1ED760" fill-opacity="0.79"/>
</g>
<defs>
<clipPath id="clip0_23_279">
<rect width="30" height="30" fill="white" transform="translate(39)"/>
</clipPath>
</defs>
</svg>
